<svg width="20" height="20" viewBox="0 0 20 20" fill="none" xmlns="http://www.w3.org/2000/svg">
<path fill-rule="evenodd" clip-rule="evenodd" d="M0 1.25H0.9375H6.25C7.78337 1.25 9.14479 1.98626 10 3.12454C10.8552 1.98626 12.2166 1.25 13.75 1.25H19.0625H20V2.1875V16.25V17.1875H19.0625H13.4283C12.6824 17.1875 11.967 17.4839 11.4396 18.0113L10.6629 18.7879H9.33709L8.56044 18.0113C8.03299 17.4839 7.31763 17.1875 6.5717 17.1875H0.9375H0V16.25V2.1875V1.25ZM9.0625 5.9375C9.0625 4.3842 7.8033 3.125 6.25 3.125H1.875V15.3125H6.5717C7.45983 15.3125 8.32197 15.5645 9.0625 16.029V5.9375ZM10.9375 16.029V5.9375C10.9375 4.3842 12.1967 3.125 13.75 3.125H18.125V15.3125H13.4283C12.5401 15.3125 11.678 15.5645 10.9375 16.029Z" fill="#666666"/>
</svg>
