<svg width="20" height="20" viewBox="0 0 20 20" fill="none" xmlns="http://www.w3.org/2000/svg">
<path fill-rule="evenodd" clip-rule="evenodd" d="M7.5 3.125H12.5C12.8451 3.125 13.125 3.40482 13.125 3.75V5H6.875V3.75C6.875 3.40482 7.15483 3.125 7.5 3.125ZM5 5V3.75C5 2.36929 6.11929 1.25 7.5 1.25H12.5C13.8807 1.25 15 2.36929 15 3.75V5H18.125H20V6.875V16.875C20 18.6009 18.6009 20 16.875 20H3.125C1.39911 20 0 18.6009 0 16.875V6.875V5H1.875H5ZM15 6.875H13.125H6.875H5H1.875V11.5625H9.0625V10.625H10.9375V11.5625H18.125V6.875H15ZM10.9375 13.4375H18.125V16.875C18.125 17.5654 17.5654 18.125 16.875 18.125H3.125C2.43465 18.125 1.875 17.5654 1.875 16.875V13.4375H9.0625V14.375H10.9375V13.4375Z" fill="#666666"/>
</svg>
