<svg width="20" height="20" viewBox="0 0 20 20" fill="none" xmlns="http://www.w3.org/2000/svg">
<path fill-rule="evenodd" clip-rule="evenodd" d="M18.125 16.875V8.125V6.76776C18.125 6.43625 17.9932 6.1183 17.7589 5.88389L12.2411 0.366116C12.0067 0.131696 11.6887 0 11.3572 0H10H3.75H1.875V1.875V16.875C1.875 18.6009 3.27411 20 5 20H15C16.7259 20 18.125 18.6009 18.125 16.875ZM16.25 16.875V8.125H11.875H10V6.25V1.875H3.75V16.875C3.75 17.5654 4.30965 18.125 5 18.125H15C15.6904 18.125 16.25 17.5654 16.25 16.875ZM11.875 6.25V2.65165L15.4734 6.25H11.875ZM6.4125 6.25077H5.63125V7.81327H6.4125H7.5H8.28125V6.25077H7.5H6.4125ZM5.63125 10H6.4125H13.75H14.5312V11.5625H13.75H6.4125H5.63125V10ZM6.4125 13.75H5.63125V15.3125H6.4125H13.75H14.5312V13.75H13.75H6.4125Z" fill="#666666"/>
</svg>
