<svg width="22" height="20" viewBox="0 0 22 20" fill="none" xmlns="http://www.w3.org/2000/svg">
<path fill-rule="evenodd" clip-rule="evenodd" d="M16.625 8.20029L11 2.57529L5.37502 8.20029V16.8745H8.50002V13.7495C8.50002 12.3687 9.61931 11.2495 11 11.2495C12.3807 11.2495 13.5 12.3687 13.5 13.7495V16.8745H16.625V8.20029ZM18.225 7.14867L11.8839 0.807523C11.3957 0.319369 10.6043 0.319365 10.1161 0.807523L3.77485 7.14881C3.77469 7.14897 3.775 7.14866 3.77485 7.14881L1.58711 9.33655L0.924194 9.99946L2.25002 11.3253L2.91294 10.6624L3.50002 10.0753V17.812V18.7495H4.43752H8.50002H10.375H11.625H13.5H17.5625H18.5V17.812V10.0753L19.0871 10.6624L19.75 11.3253L21.0759 9.99946L20.4129 9.33655L18.225 7.14867C18.2253 7.14892 18.2248 7.14842 18.225 7.14867ZM11.625 13.7495V16.8745H10.375V13.7495C10.375 13.4043 10.6548 13.1245 11 13.1245C11.3452 13.1245 11.625 13.4043 11.625 13.7495Z" fill="#666666"/>
</svg>
