<svg width="20" height="20" viewBox="0 0 20 20" fill="none" xmlns="http://www.w3.org/2000/svg">
<path fill-rule="evenodd" clip-rule="evenodd" d="M10 18.125C14.4874 18.125 18.125 14.4874 18.125 10C18.125 5.51269 14.4874 1.875 10 1.875C5.51269 1.875 1.875 5.51269 1.875 10C1.875 14.4874 5.51269 18.125 10 18.125ZM10 20C15.5229 20 20 15.5229 20 10C20 4.47715 15.5229 0 10 0C4.47715 0 0 4.47715 0 10C0 15.5229 4.47715 20 10 20ZM7.8125 8.75H8.75H9.68749C10.3778 8.75 10.9375 9.30965 10.9375 10V14.375V15.3125H9.06249V14.375V10.625H8.75H7.8125V8.75ZM10 7.5C10.6904 7.5 11.25 6.94035 11.25 6.25C11.25 5.55965 10.6904 5 10 5C9.30965 5 8.75 5.55965 8.75 6.25C8.75 6.94035 9.30965 7.5 10 7.5Z" fill="#fff"/>
</svg>
