<svg width="453" height="99" viewBox="0 0 453 99" fill="none" xmlns="http://www.w3.org/2000/svg">
<path d="M50.208 81.04C51.872 81.04 53.312 80.464 54.528 79.312C55.744 78.16 56.384 76.752 56.448 75.088V50.608H26.208V75.28C26.208 82.96 24.256 89.072 20.352 93.616C17.28 97.2 12.864 98.992 7.104 98.992C5.248 98.992 3.232 98.768 1.056 98.32L0.864 97.36C5.6 95.376 8.64 92.432 9.984 88.528C11.2 85.2 11.808 80.784 11.808 75.28V21.712C11.744 20.048 11.104 18.64 9.888 17.488C8.736 16.336 7.328 15.76 5.664 15.76H4.416V14.8H33.6V15.76H32.352C30.048 15.76 28.32 16.72 27.168 18.64C26.592 19.536 26.272 20.56 26.208 21.712V46.48H56.448V23.44C56.448 15.952 58.784 9.99999 63.456 5.58399C67.168 1.936 71.84 0.111996 77.472 0.111996C78.752 0.111996 80.096 0.207996 81.504 0.399998L81.696 1.36C77.024 3.024 73.984 5.968 72.576 10.192C71.424 13.648 70.816 18.064 70.752 23.44V74.992C70.816 77.296 71.84 79.024 73.824 80.176C74.784 80.752 75.84 81.04 76.992 81.04H78.144V82H49.056V81.04H50.208ZM94.4475 32.96C100.154 27.5733 107.541 24.88 116.608 24.88C125.728 24.88 133.141 27.5733 138.848 32.96C144.554 38.2933 147.408 45.3067 147.408 54C147.408 62.6933 144.554 69.7333 138.848 75.12C133.141 80.4533 125.728 83.12 116.608 83.12C107.541 83.12 100.154 80.4533 94.4475 75.12C88.7408 69.7333 85.8875 62.6933 85.8875 54C85.8875 45.3067 88.7408 38.2933 94.4475 32.96ZM98.7675 73.36C103.301 78.2667 109.248 80.72 116.608 80.72C123.968 80.72 129.888 78.2667 134.368 73.36C138.901 68.4533 141.168 62 141.168 54C141.168 46 138.901 39.5467 134.368 34.64C129.888 29.7333 123.968 27.28 116.608 27.28C109.248 27.28 103.301 29.7333 98.7675 34.64C94.2875 39.5467 92.0475 46 92.0475 54C92.0475 62 94.2875 68.4533 98.7675 73.36ZM170.218 28.48H165.098V76.16C165.098 77.5467 165.578 78.7467 166.538 79.76C167.551 80.72 168.778 81.2 170.218 81.2H171.178L171.258 82H153.738V81.2H154.778C156.164 81.2 157.338 80.72 158.298 79.76C159.311 78.8 159.844 77.6267 159.898 76.24V31.84C159.844 30.4533 159.311 29.28 158.298 28.32C157.338 27.3067 156.164 26.8 154.778 26.8H153.738V26H175.338C180.191 26 184.004 27.36 186.778 30.08C189.551 32.7467 190.938 36.24 190.938 40.56C190.938 44.8267 189.604 48.5333 186.938 51.68C184.324 54.7733 181.124 56.32 177.338 56.32C178.138 56.6933 179.071 57.44 180.138 58.56C181.258 59.6267 182.244 60.7467 183.098 61.92C187.684 68.48 190.671 72.5333 192.058 74.08C193.444 75.5733 194.431 76.6133 195.018 77.2C195.604 77.7333 196.244 78.2667 196.938 78.8C197.631 79.3333 198.324 79.76 199.018 80.08C200.564 80.8267 202.218 81.2 203.978 81.2V82H199.578C197.284 82 195.151 81.6 193.178 80.8C191.204 79.9467 189.711 79.0933 188.698 78.24C187.738 77.3333 186.884 76.48 186.138 75.68C185.444 74.8267 183.471 72.0533 180.218 67.36C176.964 62.6667 175.071 60 174.538 59.36C174.004 58.6667 173.444 58 172.858 57.36C171.151 55.5467 169.444 54.64 167.738 54.64V53.84C168.164 53.8933 168.724 53.92 169.418 53.92C170.111 53.92 170.964 53.8933 171.978 53.84C178.591 53.68 182.751 50.9067 184.458 45.52C184.778 44.4533 184.938 43.4667 184.938 42.56C184.938 41.6 184.938 40.9867 184.938 40.72C184.831 37.1467 183.898 34.2667 182.138 32.08C180.378 29.8933 178.004 28.72 175.018 28.56C173.738 28.5067 172.138 28.48 170.218 28.48ZM221.936 81.2H222.976V82H205.456V81.2H206.496C207.883 81.2 209.056 80.72 210.016 79.76C211.03 78.7467 211.563 77.5467 211.616 76.16V31.76C211.563 30.3733 211.03 29.2 210.016 28.24C209.056 27.28 207.883 26.8 206.496 26.8H205.456V26H222.976V26.8H221.936C220.55 26.8 219.35 27.28 218.336 28.24C217.376 29.2 216.87 30.3733 216.816 31.76V76.16C216.816 77.5467 217.323 78.7467 218.336 79.76C219.35 80.72 220.55 81.2 221.936 81.2ZM254.096 82H250.656C245.216 82 241.216 80.48 238.656 77.44L219.376 54.16L238.256 30.48C238.683 29.9467 238.896 29.4667 238.896 29.04C238.896 28.6133 238.816 28.24 238.656 27.92C238.23 27.12 237.456 26.72 236.336 26.72H235.536V26H252.416V26.72H252.096C248.576 26.72 245.696 27.9733 243.456 30.48L224.656 52.24L246.496 77.92C248.63 80.0533 251.163 81.1467 254.096 81.2V82ZM274.514 28.48H269.394V76.16C269.394 77.5467 269.874 78.7467 270.834 79.76C271.848 80.72 273.074 81.2 274.514 81.2H275.474L275.554 82H258.034V81.2H259.074C260.461 81.2 261.634 80.72 262.594 79.76C263.608 78.8 264.141 77.6267 264.194 76.24V31.84C264.141 30.4533 263.608 29.28 262.594 28.32C261.634 27.3067 260.461 26.8 259.074 26.8H258.034V26H279.634C284.488 26 288.301 27.36 291.074 30.08C293.848 32.7467 295.234 36.24 295.234 40.56C295.234 44.8267 293.901 48.5333 291.234 51.68C288.621 54.7733 285.421 56.32 281.634 56.32C282.434 56.6933 283.368 57.44 284.434 58.56C285.554 59.6267 286.541 60.7467 287.394 61.92C291.981 68.48 294.968 72.5333 296.354 74.08C297.741 75.5733 298.728 76.6133 299.314 77.2C299.901 77.7333 300.541 78.2667 301.234 78.8C301.928 79.3333 302.621 79.76 303.314 80.08C304.861 80.8267 306.514 81.2 308.274 81.2V82H303.874C301.581 82 299.448 81.6 297.474 80.8C295.501 79.9467 294.008 79.0933 292.994 78.24C292.034 77.3333 291.181 76.48 290.434 75.68C289.741 74.8267 287.768 72.0533 284.514 67.36C281.261 62.6667 279.368 60 278.834 59.36C278.301 58.6667 277.741 58 277.154 57.36C275.448 55.5467 273.741 54.64 272.034 54.64V53.84C272.461 53.8933 273.021 53.92 273.714 53.92C274.408 53.92 275.261 53.8933 276.274 53.84C282.888 53.68 287.048 50.9067 288.754 45.52C289.074 44.4533 289.234 43.4667 289.234 42.56C289.234 41.6 289.234 40.9867 289.234 40.72C289.128 37.1467 288.194 34.2667 286.434 32.08C284.674 29.8933 282.301 28.72 279.314 28.56C278.034 28.5067 276.434 28.48 274.514 28.48ZM362.191 26.8H360.911C359.791 26.8 358.804 27.1733 357.951 27.92C357.151 28.6133 356.724 29.4933 356.671 30.56V62.24C356.671 68.48 354.697 73.52 350.751 77.36C346.804 81.2 341.551 83.12 334.991 83.12C328.431 83.12 323.097 81.2267 318.991 77.44C314.937 73.6 312.911 68.56 312.911 62.32V30.8C312.911 29.2 312.217 28.0267 310.831 27.28C310.191 26.96 309.471 26.8 308.671 26.8H307.391V26H323.631V26.8H322.351C321.177 26.8 320.191 27.1733 319.391 27.92C318.591 28.6133 318.164 29.52 318.111 30.64V61.2C318.111 67.0133 319.657 71.7067 322.751 75.28C325.897 78.8533 330.084 80.64 335.311 80.64C340.537 80.64 344.777 78.96 348.031 75.6C351.284 72.1867 352.911 67.7333 352.911 62.24V30.64C352.857 29.52 352.431 28.6133 351.631 27.92C350.831 27.1733 349.844 26.8 348.671 26.8H347.391V26H362.191V26.8ZM387.483 81.2H388.523V82H371.003V81.2H372.043C373.43 81.2 374.603 80.72 375.563 79.76C376.576 78.7467 377.11 77.5467 377.163 76.16V31.76C377.11 30.3733 376.576 29.2 375.563 28.24C374.603 27.28 373.43 26.8 372.043 26.8H371.003V26H388.523V26.8H387.483C386.096 26.8 384.896 27.28 383.883 28.24C382.923 29.2 382.416 30.3733 382.363 31.76V76.16C382.363 77.5467 382.87 78.7467 383.883 79.76C384.896 80.72 386.096 81.2 387.483 81.2ZM419.643 82H416.203C410.763 82 406.763 80.48 404.203 77.44L384.923 54.16L403.803 30.48C404.23 29.9467 404.443 29.4667 404.443 29.04C404.443 28.6133 404.363 28.24 404.203 27.92C403.776 27.12 403.003 26.72 401.883 26.72H401.083V26H417.963V26.72H417.643C414.123 26.72 411.243 27.9733 409.003 30.48L390.203 52.24L412.043 77.92C414.176 80.0533 416.71 81.1467 419.643 81.2V82ZM423.661 78.72C423.501 77.9733 423.421 76.5333 423.421 74.4C423.421 72.2667 423.821 70 424.621 67.6H425.341C425.288 68.1867 425.261 68.7733 425.261 69.36C425.261 72.6133 426.248 75.3333 428.221 77.52C430.195 79.6533 432.808 80.72 436.061 80.72C439.421 80.72 442.168 79.7067 444.301 77.68C446.488 75.6533 447.581 73.12 447.581 70.08C447.581 66.9867 446.541 64.48 444.461 62.56L429.101 48.32C426.221 45.6533 424.781 42.4267 424.781 38.64C424.781 34.8533 426.035 31.6267 428.541 28.96C431.101 26.24 434.541 24.88 438.861 24.88C440.888 24.88 443.181 25.1467 445.741 25.68H448.861V35.52H448.141C448.141 33.0133 447.261 31.0133 445.501 29.52C443.795 28.0267 441.581 27.28 438.861 27.28C436.141 27.28 433.848 28.1867 431.981 30C430.168 31.8133 429.261 34.08 429.261 36.8C429.261 39.52 430.328 41.8667 432.461 43.84L448.221 58.4C450.888 60.8533 452.221 64.2133 452.221 68.48C452.221 72.7467 450.861 76.2667 448.141 79.04C445.421 81.76 441.795 83.12 437.261 83.12C434.915 83.12 432.408 82.7467 429.741 82C427.128 81.3067 425.101 80.2133 423.661 78.72Z" fill="#171717"/>
</svg>
