<svg width="20" height="20" viewBox="0 0 20 20" fill="none" xmlns="http://www.w3.org/2000/svg">
<path fill-rule="evenodd" clip-rule="evenodd" d="M14.6875 0.236328L15.3504 0.899241L19.1004 4.64924L19.7634 5.31215L19.1004 5.97506L6.44876 18.6267C5.56969 19.5058 4.3774 19.9997 3.1342 19.9997H0.9375H0V19.0622V16.8654C0 15.6223 0.49386 14.4299 1.37294 13.5509L14.0246 0.899241L14.6875 0.236328ZM14.6875 2.88798L12.2633 5.31215L14.6875 7.73633L17.1116 5.31215L14.6875 2.88798ZM2.69876 14.8767L10.9375 6.63798L13.3616 9.06215L5.12294 17.3009C4.59549 17.8283 3.88013 18.1247 3.1342 18.1247H1.875V16.8654C1.875 16.1195 2.17131 15.4042 2.69876 14.8767ZM11.25 19.9997H20V18.1247H11.25V19.9997Z" fill="#692ae5"/>
</svg>
