<svg width="20" height="20" viewBox="0 0 20 20" fill="none" xmlns="http://www.w3.org/2000/svg">
<path fill-rule="evenodd" clip-rule="evenodd" d="M18.125 10C18.125 14.4874 14.4874 18.125 10 18.125C5.51269 18.125 1.875 14.4874 1.875 10C1.875 5.51269 5.51269 1.875 10 1.875C14.4874 1.875 18.125 5.51269 18.125 10ZM20 10C20 15.5229 15.5229 20 10 20C4.47715 20 0 15.5229 0 10C0 4.47715 4.47715 0 10 0C15.5229 0 20 4.47715 20 10ZM10.9375 5.3125V6.25V9.0625H13.75H14.6875V10.9375H13.75H10.9375V13.75V14.6875H9.0625V13.75V10.9375H6.25H5.3125V9.0625H6.25H9.0625V6.25V5.3125H10.9375Z" fill="#666666"/>
</svg>
