<svg width="20" height="20" viewBox="0 0 20 20" fill="none" xmlns="http://www.w3.org/2000/svg">
<path fill-rule="evenodd" clip-rule="evenodd" d="M18.125 10C18.125 14.4874 14.4874 18.125 10 18.125C5.51269 18.125 1.875 14.4874 1.875 10C1.875 5.51269 5.51269 1.875 10 1.875C14.4874 1.875 18.125 5.51269 18.125 10ZM20 10C20 15.5229 15.5229 20 10 20C4.47715 20 0 15.5229 0 10C0 4.47715 4.47715 0 10 0C15.5229 0 20 4.47715 20 10ZM6.91291 5.58709L6.25 4.92418L4.92418 6.25L5.58709 6.91291L13.0871 14.4129L13.75 15.0759L15.0759 13.75L14.4129 13.0871L6.91291 5.58709Z" fill="#64748B"/>
</svg>
