<svg width="20" height="20" viewBox="0 0 20 20" fill="none" xmlns="http://www.w3.org/2000/svg">
<path fill-rule="evenodd" clip-rule="evenodd" d="M8.4375 3.4375C8.4375 2.57455 9.13705 1.875 10 1.875C10.863 1.875 11.5625 2.57455 11.5625 3.4375V3.75H8.4375V3.4375ZM6.5625 3.75V3.4375C6.5625 1.53903 8.10152 0 10 0C11.8985 0 13.4375 1.53903 13.4375 3.4375V3.75H16.1501H17.8125H18.75V5.625H17.8125H17.3557L16.472 17.1146C16.3468 18.7428 14.9891 20 13.3561 20H6.64385C5.01093 20 3.65329 18.7428 3.52805 17.1146L2.64423 5.625H2.1875H1.25V3.75H2.1875H3.84985H6.5625ZM5.39752 16.9709L4.52478 5.625H15.4753L14.6025 16.9709C14.5524 17.6221 14.0094 18.125 13.3561 18.125H6.64385C5.99068 18.125 5.44762 17.6221 5.39752 16.9709Z" fill="#D93036"/>
</svg>
