<svg width="20" height="20" viewBox="0 0 20 20" fill="none" xmlns="http://www.w3.org/2000/svg">
<path fill-rule="evenodd" clip-rule="evenodd" d="M3.125 4.0625C3.125 1.81884 4.94384 0 7.1875 0H7.8125C10.0562 0 11.875 1.81884 11.875 4.0625V4.6875C11.875 6.93116 10.0562 8.75 7.8125 8.75H7.1875C4.94384 8.75 3.125 6.93116 3.125 4.6875V4.0625ZM7.1875 1.875C5.97937 1.875 5 2.85438 5 4.0625V4.6875C5 5.89563 5.97937 6.875 7.1875 6.875H7.8125C9.02062 6.875 10 5.89563 10 4.6875V4.0625C10 2.85438 9.02062 1.875 7.8125 1.875H7.1875ZM1.875 16.4618C2.90602 14.3636 4.64147 13.125 6.875 13.125V11.25C3.71686 11.25 1.35337 13.1118 0.0862881 15.8571L0 16.0441V16.25V19.0625V20H0.9375H6.875V18.125H1.875V16.4618ZM12.6144 12.7719C13.0705 12.5386 13.493 12.1283 13.7052 11.5625H13.7947C14.007 12.1283 14.4295 12.5386 14.8856 12.7719C14.9622 12.811 15.0367 12.8541 15.1089 12.901C15.5396 13.1807 16.1075 13.342 16.7046 13.2426L16.7492 13.3199C16.3654 13.7861 16.2206 14.3571 16.2466 14.8694C16.2489 14.9125 16.25 14.9561 16.25 15C16.25 15.0439 16.2489 15.0875 16.2466 15.1305C16.2206 15.6429 16.3654 16.2139 16.7492 16.6801L16.7046 16.7574C16.1075 16.658 15.5396 16.8193 15.1089 17.099C15.0367 17.1459 14.9622 17.189 14.8856 17.2281C14.4295 17.4614 14.007 17.8716 13.7947 18.4375H13.7052C13.493 17.8716 13.0705 17.4614 12.6144 17.2281C12.5377 17.189 12.4632 17.1459 12.3912 17.099C11.9604 16.8193 11.3925 16.658 10.7953 16.7574L10.7507 16.6801C11.1346 16.2139 11.2794 15.643 11.2533 15.1306C11.2511 15.0875 11.25 15.0439 11.25 15C11.25 14.9561 11.2511 14.9125 11.2533 14.8694C11.2794 14.357 11.1346 13.7861 10.7508 13.3199L10.7954 13.2426C11.3925 13.342 11.9604 13.1807 12.3912 12.901C12.4632 12.8541 12.5377 12.811 12.6144 12.7719ZM18.0046 14.2599L18.7051 13.5825L17.4551 11.4175L16.5187 11.6853C16.3286 11.7397 16.1257 11.6983 15.9599 11.5906C15.8429 11.5146 15.7217 11.4445 15.5969 11.3806C15.4211 11.2907 15.284 11.1358 15.236 10.9442L15 10H12.5L12.2639 10.9442C12.216 11.1358 12.0789 11.2907 11.9031 11.3806C11.7782 11.4445 11.6571 11.5146 11.5401 11.5906C11.3743 11.6983 11.1714 11.7397 10.9813 11.6853L10.0449 11.4175L8.79489 13.5825L9.49537 14.2599C9.63721 14.397 9.70287 14.5929 9.69284 14.7899C9.68929 14.8595 9.6875 14.9295 9.6875 15C9.6875 15.0705 9.68929 15.1405 9.69284 15.21C9.70287 15.4071 9.63721 15.603 9.49537 15.7401L8.79486 16.4175L10.0449 18.5825L10.9813 18.3146C11.1713 18.2603 11.3743 18.3018 11.5401 18.4094C11.6571 18.4854 11.7782 18.5555 11.9031 18.6194C12.0789 18.7092 12.216 18.8641 12.2639 19.0557L12.5 20H15L15.236 19.0557C15.284 18.8641 15.4211 18.7092 15.5969 18.6194C15.7217 18.5555 15.8429 18.4854 15.9599 18.4094C16.1257 18.3018 16.3286 18.2603 16.5187 18.3146L17.4551 18.5825L18.7051 16.4175L18.0046 15.7401C17.8627 15.603 17.7971 15.4071 17.8071 15.21C17.8107 15.1405 17.8125 15.0705 17.8125 15C17.8125 14.9295 17.8107 14.8595 17.8071 14.79C17.7971 14.5929 17.8627 14.397 18.0046 14.2599Z" fill="#692AE5"/>
</svg>
