<svg width="20" height="20" viewBox="0 0 20 20" fill="none" xmlns="http://www.w3.org/2000/svg">
<path fill-rule="evenodd" clip-rule="evenodd" d="M3.125 4.0625C3.125 1.81884 4.94384 0 7.1875 0H7.8125C10.0562 0 11.875 1.81884 11.875 4.0625V4.6875C11.875 6.93116 10.0562 8.75 7.8125 8.75H7.1875C4.94384 8.75 3.125 6.93116 3.125 4.6875V4.0625ZM7.1875 1.875C5.97937 1.875 5 2.85438 5 4.0625V4.6875C5 5.89563 5.97937 6.875 7.1875 6.875H7.8125C9.02063 6.875 10 5.89563 10 4.6875V4.0625C10 2.85438 9.02063 1.875 7.8125 1.875H7.1875ZM1.875 18.125V16.4636C2.89948 14.4221 4.99135 13.125 7.28681 13.125H7.71319C10.0086 13.125 12.1005 14.4221 13.125 16.4636V18.125H1.875ZM7.28681 11.25C4.19354 11.25 1.38255 13.0485 0.0862881 15.8571L0 16.0441V16.25V19.0625V20H0.9375H14.0625H15V19.0625V16.25V16.0441L14.9137 15.8571C13.6175 13.0485 10.8065 11.25 7.71319 11.25H7.28681ZM19.9137 15.8571C19.2132 14.3394 18.0701 13.1164 16.6799 12.3132L15.7419 13.9367C16.7488 14.5185 17.5851 15.3876 18.125 16.4636V18.125H16.875V20H19.0625H20V19.0625V16.25V16.044L19.9137 15.8571ZM14.0625 0H13.125V1.875H14.0625C15.2706 1.875 16.25 2.85438 16.25 4.0625V4.6875C16.25 5.89563 15.2706 6.875 14.0625 6.875H13.125V8.75H14.0625C16.3061 8.75 18.125 6.93116 18.125 4.6875V4.0625C18.125 1.81884 16.3061 0 14.0625 0Z" fill="#666666"/>
</svg>
