<svg width="20" height="20" viewBox="0 0 20 20" fill="none" xmlns="http://www.w3.org/2000/svg">
<path fill-rule="evenodd" clip-rule="evenodd" d="M7.1875 0C4.94384 0 3.125 1.81884 3.125 4.0625V4.6875C3.125 6.93116 4.94384 8.75 7.1875 8.75H7.8125C10.0562 8.75 11.875 6.93116 11.875 4.6875V4.0625C11.875 1.81884 10.0562 0 7.8125 0H7.1875ZM5 4.0625C5 2.85438 5.97937 1.875 7.1875 1.875H7.8125C9.02063 1.875 10 2.85438 10 4.0625V4.6875C10 5.89563 9.02063 6.875 7.8125 6.875H7.1875C5.97937 6.875 5 5.89563 5 4.6875V4.0625ZM19.1004 7.85041L19.7634 7.1875L18.4375 5.86168L17.7746 6.52459L16.7188 7.58043L15.6629 6.52459L15 5.86168L13.6741 7.1875L14.3371 7.85041L15.3929 8.90625L14.3371 9.96209L13.6741 10.625L15 11.9508L15.6629 11.2879L16.7188 10.2321L17.7746 11.2879L18.4375 11.9508L19.7634 10.625L19.1004 9.96209L18.0446 8.90625L19.1004 7.85041ZM1.875 16.4636V18.125H13.125V16.4636C12.1005 14.4221 10.0086 13.125 7.71319 13.125H7.28681C4.99135 13.125 2.89948 14.4221 1.875 16.4636ZM0.0862881 15.8571C1.38255 13.0485 4.19354 11.25 7.28681 11.25H7.71319C10.8065 11.25 13.6175 13.0485 14.9137 15.8571L15 16.0441V16.25V19.0625V20H14.0625H0.9375H0V19.0625V16.25V16.0441L0.0862881 15.8571Z" fill="#D93036"/>
</svg>
