<svg width="20" height="20" viewBox="0 0 20 20" fill="none" xmlns="http://www.w3.org/2000/svg">
<path fill-rule="evenodd" clip-rule="evenodd" d="M7.1875 0C4.94384 0 3.125 1.81884 3.125 4.0625V4.6875C3.125 6.93116 4.94384 8.75 7.1875 8.75H7.8125C10.0562 8.75 11.875 6.93116 11.875 4.6875V4.0625C11.875 1.81884 10.0562 0 7.8125 0H7.1875ZM5 4.0625C5 2.85438 5.97937 1.875 7.1875 1.875H7.8125C9.02063 1.875 10 2.85438 10 4.0625V4.6875C10 5.89563 9.02063 6.875 7.8125 6.875H7.1875C5.97937 6.875 5 5.89563 5 4.6875V4.0625ZM15.3125 9.0625V11.25H17.1875V9.0625H19.375V7.1875H17.1875V5H15.3125V7.1875H13.125V9.0625H15.3125ZM1.875 16.4636V18.125H13.125V16.4636C12.1005 14.4221 10.0086 13.125 7.71319 13.125H7.28681C4.99135 13.125 2.89948 14.4221 1.875 16.4636ZM0.0862881 15.8571C1.38255 13.0485 4.19354 11.25 7.28681 11.25H7.71319C10.8065 11.25 13.6175 13.0485 14.9137 15.8571L15 16.0441V16.25V19.0625V20H14.0625H0.9375H0V19.0625V16.25V16.0441L0.0862881 15.8571Z" fill="#666666"/>
</svg>
