<svg width="23" height="24" viewBox="0 0 23 24" fill="none" xmlns="http://www.w3.org/2000/svg">
<path fill-rule="evenodd" clip-rule="evenodd" d="M11.0696 2.99576L11.1333 2.65625H11.8667L11.9304 2.99576C12.1334 4.07845 12.9139 4.8816 13.8472 5.20387C14.1205 5.29825 14.3865 5.40872 14.644 5.53423C15.5322 5.96722 16.6527 5.95129 17.5622 5.32904L17.8477 5.13367L18.3664 5.65229L18.171 5.93783C17.5487 6.84727 17.5328 7.96776 17.9657 8.85607C18.0912 9.11354 18.2018 9.37948 18.2961 9.65276C18.6184 10.5861 19.4215 11.3666 20.5042 11.5696L20.8438 11.6333V12.3667L20.5042 12.4304C19.4215 12.6334 18.6184 13.4139 18.2961 14.3472C18.2018 14.6205 18.0912 14.8865 17.9657 15.144C17.5328 16.0322 17.5487 17.1527 18.171 18.0622L18.3664 18.3477L17.8477 18.8664L17.5622 18.671C16.6527 18.0487 15.5322 18.0328 14.644 18.4657C14.3865 18.5912 14.1205 18.7018 13.8472 18.7961C12.9139 19.1184 12.1334 19.9215 11.9304 21.0042L11.8667 21.3438H11.1333L11.0696 21.0042C10.8666 19.9215 10.0861 19.1184 9.15275 18.7961C8.87947 18.7018 8.61353 18.5912 8.35604 18.4657C7.46774 18.0328 6.34725 18.0487 5.43782 18.671L5.15229 18.8664L4.63367 18.3477L4.82902 18.0622C5.45127 17.1527 5.46719 16.0323 5.03421 15.144C4.9087 14.8865 4.79823 14.6205 4.70386 14.3472C4.38159 13.4139 3.57844 12.6334 2.49573 12.4304L2.15625 12.3667V11.6333L2.49573 11.5696C3.57844 11.3666 4.38159 10.5861 4.70386 9.65278C4.79823 9.37948 4.9087 9.11354 5.0342 8.85606C5.46719 7.96776 5.45126 6.84727 4.82901 5.93782L4.63364 5.65229L5.15226 5.13367L5.4378 5.32902C6.34724 5.95127 7.46773 5.9672 8.35604 5.53423C8.61351 5.40872 8.87945 5.29825 9.15275 5.20387C10.0861 4.8816 10.8666 4.07845 11.0696 2.99576ZM9.34374 0.5H13.6562L14.0497 2.59838C14.0995 2.86428 14.2953 3.07742 14.551 3.16571C14.9072 3.28869 15.2535 3.4326 15.5887 3.59596C15.8319 3.71454 16.1213 3.70229 16.3445 3.54947L18.107 2.34358L21.1564 5.39298L19.9505 7.15544C19.7977 7.3788 19.7855 7.66805 19.9041 7.91132C20.0674 8.24647 20.2113 8.59285 20.3343 8.94899C20.4226 9.20471 20.6357 9.40044 20.9015 9.45031L23 9.84375V14.1562L20.9015 14.5497C20.6357 14.5996 20.4226 14.7953 20.3343 15.051C20.2113 15.4072 20.0674 15.7536 19.9041 16.0887C19.7855 16.3319 19.7977 16.6213 19.9505 16.8445L21.1564 18.607L18.107 21.6564L16.3445 20.4505C16.1211 20.2977 15.8319 20.2855 15.5887 20.4041C15.2535 20.5674 14.9072 20.7113 14.551 20.8343C14.2953 20.9226 14.0995 21.1357 14.0497 21.4017L13.6562 23.5H9.34374L8.95028 21.4017C8.90042 21.1357 8.70469 20.9226 8.44898 20.8343C8.09284 20.7113 7.74646 20.5674 7.4113 20.4041C7.16802 20.2855 6.87877 20.2977 6.65541 20.4505L4.89298 21.6564L1.84358 18.607L3.04946 16.8447C3.20228 16.6213 3.21452 16.3321 3.09594 16.0887C2.93259 15.7536 2.78868 15.4072 2.6657 15.051C2.57739 14.7953 2.36426 14.5995 2.09836 14.5497L0 14.1562V9.84375L2.09836 9.45031C2.36426 9.40045 2.57739 9.20471 2.6657 8.94899C2.78868 8.59285 2.93257 8.24647 3.09594 7.9113C3.21452 7.66804 3.20226 7.37878 3.04944 7.15542L1.84355 5.39298L4.89295 2.34358L6.6554 3.54946C6.87875 3.70228 7.16801 3.71454 7.41129 3.59596C7.74644 3.4326 8.09284 3.28869 8.44898 3.16571C8.70469 3.07742 8.90042 2.86428 8.95028 2.59839L9.34374 0.5ZM13.6562 12C13.6562 13.1909 12.6908 14.1562 11.5 14.1562C10.3091 14.1562 9.34372 13.1909 9.34372 12C9.34372 10.8091 10.3091 9.84375 11.5 9.84375C12.6908 9.84375 13.6562 10.8091 13.6562 12ZM15.8125 12C15.8125 14.3817 13.8817 16.3125 11.5 16.3125C9.11825 16.3125 7.18747 14.3817 7.18747 12C7.18747 9.61828 9.11825 7.6875 11.5 7.6875C13.8817 7.6875 15.8125 9.61828 15.8125 12Z" fill="#666666"/>
</svg>
